<?xml version="1.0" standalone="no"?>
<!DOCTYPE svg PUBLIC "-//W3C//DTD SVG 20010904//EN"
 "http://www.w3.org/TR/2001/REC-SVG-20010904/DTD/svg10.dtd">
<svg version="1.0" xmlns="http://www.w3.org/2000/svg"
 width="1200.000000pt" height="1200.000000pt" viewBox="0 0 1200.000000 1200.000000"
 preserveAspectRatio="xMidYMid meet">
<metadata>
Created by potrace 1.14, written by Peter Selinger 2001-2017
</metadata>
<g transform="translate(0.000000,1200.000000) scale(0.100000,-0.100000)"
fill="#000000" stroke="none">
<path d="M5899 9786 c-179 -64 -269 -251 -209 -436 36 -112 121 -192 233 -221
26 -6 47 -16 47 -21 0 -6 -38 -148 -84 -317 -47 -168 -121 -447 -165 -620 -45
-173 -95 -362 -112 -420 -132 -456 -310 -895 -532 -1310 -81 -150 -210 -377
-223 -390 -2 -2 -61 50 -131 115 -709 661 -1312 1359 -1922 2227 -74 105 -101
134 -101 109 0 -5 22 -134 50 -288 56 -315 121 -743 145 -944 34 -300 45 -768
25 -1065 -15 -207 -45 -454 -58 -467 -9 -9 -16 -8 -29 3 -432 366 -850 788
-1272 1284 -75 88 -153 178 -174 199 l-38 39 20 21 c36 39 61 107 60 171 0
108 -43 184 -132 235 -98 56 -237 32 -301 -53 -89 -117 -86 -252 8 -364 56
-67 167 -91 261 -58 22 8 43 11 46 7 15 -16 271 -514 396 -771 309 -632 449
-966 650 -1551 46 -134 86 -247 89 -249 3 -3 3 17 0 44 -4 28 -15 149 -26 270
-11 121 -25 262 -31 313 -6 51 -9 95 -6 98 3 4 95 -45 204 -109 162 -93 501
-283 600 -336 22 -11 29 2 283 509 151 301 266 520 274 520 7 0 42 -22 77 -48
172 -129 1145 -792 1163 -792 6 0 237 226 513 502 l503 503 503 -503 c276
-276 507 -502 513 -502 18 0 798 534 1153 789 47 33 87 58 90 56 4 -2 121
-235 260 -519 167 -339 260 -516 269 -516 9 0 195 101 414 225 219 124 401
225 404 225 3 0 2 -26 -1 -57 -3 -32 -16 -177 -30 -323 -13 -146 -27 -287 -29
-313 -3 -29 -1 -45 4 -42 6 4 10 12 10 20 0 25 179 551 250 735 83 214 185
456 277 655 121 261 566 1138 592 1168 4 4 24 1 44 -8 20 -8 65 -15 99 -15
224 0 330 286 167 449 -73 74 -187 93 -284 47 -150 -70 -194 -278 -85 -403
l31 -35 -25 -19 c-14 -11 -76 -79 -138 -152 -257 -303 -547 -619 -755 -824
-247 -244 -588 -542 -603 -527 -10 11 -43 236 -61 419 -17 165 -17 655 -1 845
33 385 101 855 195 1340 l32 165 77 5 c182 13 297 138 291 318 -3 78 -31 143
-86 200 -62 64 -129 95 -202 95 -229 -1 -380 -239 -278 -439 34 -66 93 -125
148 -148 l35 -15 -137 -193 c-469 -663 -890 -1183 -1309 -1618 -155 -162 -654
-648 -678 -662 -23 -13 -320 537 -461 857 -189 428 -258 642 -499 1555 -69
261 -135 507 -146 545 -37 121 -37 112 12 120 96 16 196 93 238 182 107 227
-57 494 -303 493 -34 -1 -78 -7 -98 -14z"/>
<path d="M2557 9120 c-180 -45 -282 -241 -217 -414 27 -71 92 -141 163 -175
42 -20 59 -23 130 -19 96 5 142 25 204 90 112 115 116 298 10 424 -60 71 -199
116 -290 94z"/>
<path d="M5425 4739 c-222 -8 -642 -28 -725 -34 -25 -2 -121 -9 -215 -15 -93
-6 -208 -15 -255 -20 -47 -5 -157 -17 -245 -25 -163 -16 -193 -19 -490 -55
-320 -39 -706 -111 -905 -168 l-95 -27 -3 -243 c-2 -210 0 -242 13 -242 8 0
63 14 122 30 221 62 576 126 963 174 284 36 653 73 790 81 63 3 196 12 295 20
333 26 856 40 1475 40 575 -1 689 -4 1170 -35 861 -56 1711 -172 2062 -280 53
-17 103 -30 112 -30 15 0 16 25 14 242 l-3 243 -40 13 c-115 38 -429 108 -660
147 -239 40 -899 115 -1195 135 -85 6 -211 15 -280 20 -402 33 -1393 48 -1905
29z"/>
<path d="M8505 3506 c-198 -49 -317 -218 -319 -451 -2 -317 198 -505 504 -474
243 25 392 222 377 499 -9 167 -72 292 -187 369 -97 64 -251 88 -375 57z m211
-151 c101 -30 165 -131 172 -275 8 -154 -32 -259 -119 -317 -36 -24 -55 -29
-126 -32 -74 -3 -90 0 -137 23 -58 28 -94 72 -122 146 -21 56 -25 216 -6 280
44 151 182 222 338 175z"/>
<path d="M3000 3050 l0 -460 80 0 80 0 0 190 0 190 215 0 215 0 0 80 0 80
-215 0 -215 0 0 110 0 110 245 0 245 0 0 80 0 80 -325 0 -325 0 0 -460z"/>
<path d="M3800 3050 l0 -460 280 0 281 0 -3 78 -3 77 -197 3 -198 2 0 380 0
380 -80 0 -80 0 0 -460z"/>
<path d="M4589 3128 c-84 -211 -167 -418 -185 -460 l-33 -78 94 0 c88 0 94 1
101 23 4 12 20 57 36 100 l30 77 172 0 172 0 36 -97 36 -98 91 -3 c50 -1 91 1
90 5 0 4 -82 211 -182 458 l-182 450 -61 3 -62 3 -153 -383z m275 -34 c31 -83
56 -154 56 -158 0 -3 -54 -6 -119 -6 l-119 0 35 93 c72 194 85 228 88 225 2
-2 28 -71 59 -154z"/>
<path d="M5242 3501 c2 -5 84 -212 183 -460 l180 -451 65 0 65 0 181 455 c100
250 179 456 176 460 -3 3 -43 5 -89 5 l-84 0 -18 -42 c-9 -24 -64 -168 -122
-320 -57 -152 -107 -274 -110 -270 -4 4 -57 140 -119 302 -61 162 -116 303
-121 312 -8 15 -24 18 -100 18 -50 0 -89 -4 -87 -9z"/>
<path d="M6220 3050 l0 -460 305 0 305 0 0 80 0 80 -220 0 -220 0 0 110 0 110
205 0 205 0 0 80 0 80 -205 0 -205 0 0 110 0 110 220 0 220 0 0 80 0 80 -305
0 -305 0 0 -460z"/>
<path d="M7030 3050 l0 -460 80 0 80 0 0 195 0 196 57 -3 56 -3 111 -192 111
-193 97 0 97 0 -126 202 c-71 112 -122 203 -116 205 26 9 92 64 116 95 73 99
58 255 -33 331 -82 69 -159 87 -382 87 l-148 0 0 -460z m376 288 c42 -20 66
-60 66 -108 -1 -79 -52 -110 -182 -110 l-90 0 0 121 0 122 90 -6 c49 -3 102
-12 116 -19z"/>
<path d="M7850 3050 l0 -460 85 0 85 0 -2 458 -3 457 -82 3 -83 3 0 -461z"/>
</g>
</svg>
