<?xml version="1.0" encoding="UTF-8"?>
<svg id="Ebene_1" xmlns="http://www.w3.org/2000/svg" viewBox="0 0 75.38 56.69">
  <defs>
    <style>
      .cls-1 {
        fill: #ffffff;
      }
    </style>
  </defs>
  <path class="cls-1" d="M75.38,3.49l-1.29,6.06-8.43,39.57-.33,1.58c-7.22-2.76-14.59-5.17-22.03-6.92-5.43-1.14-15.42-3.5-20.26-.29-1.61,1.14-1.88,3.44-.78,5.04,5.25,7.54,15.15,6.39,22.58,5.22,3.53-.65,7.06-1.54,10.54-2.59-9.27,3.73-23.11,8.88-32.2,2.56-4.11-3.02-6.19-8.99-1.56-12.78,5.54-3.92,16.04-1.43,22.17-.15,6.67,1.57,13.2,3.62,19.69,6.02l6.86-32.2c-4.26,5.34-10.38,12.44-13.94,12.71-2.21,0-3.2-2.52-3.73-5.07-2.99,4.27-7.25,8.01-10.47,1.54-1.57-3.21-2.56-6.54-3.35-9.97-.86,3.31-1.89,6.52-3.39,9.63-1.05,2.19-3.12,4.82-5.52,3.39-2.15-1.32-3.71-3.34-5.19-5.48-1.19,2.71-2.89,5.99-5.14,6.05-3.97-.12-8.84-7.11-11.4-10.45,3.23,11.02,7.05,24.32,9.69,33.59C12.38,35.29,5.42,15.35,0,0c1.64,2.44,6.32,9.32,7.87,11.61,2.11,3.12,8.59,12.59,11.84,12.73.78-.47,1.47-1.84,2-2.79.93-1.78,1.81-4.04,2.54-5.96,1.97,2.98,3.98,6.61,6.74,8.47.31.12.31.2.58.08.22-.11.55-.43.84-.84,1.61-2.41,2.51-5.4,3.42-8.39,1.24-4.13,2.33-9.73,3.23-14.01l1.16,6.59c.45,2.55,1.01,5.14,1.68,7.63.86,3.02,1.68,6.09,3.37,8.42,1.79,2.82,6.02-4.02,7.08-5.83l1.97-3.4.39,4.08c.21,1.82.49,3.95,1.27,5.5.11.2.23.34.27.38.01,0,.02,0,.02,0,0,0,.01,0,.07,0,1.96-.5,3.78-2.53,5.37-4.03,1.8-1.82,3.53-3.81,5.22-5.83,2.76-3.25,5.84-7.47,8.45-10.92Z"/>
</svg>