<svg xmlns="http://www.w3.org/2000/svg" viewBox="0 0 261.39 174.09" fill="#38393a">
  <path d="m194.05 5.13-2.24 8.9-14.61 58.14-.58 2.32a338.44 338.44 0 0 0-38.2-10.16c-9.42-1.67-26.73-5.14-35.11-.42a4.87 4.87 0 0 0-1.35 7.41c9.1 11.08 26.26 9.39 39.15 7.66 6.12-.95 12.23-2.27 18.28-3.8-16.06 5.48-40.06 13.04-55.82 3.76-7.12-4.44-10.74-13.2-2.71-18.78 9.6-5.76 27.8-2.1 38.43-.22a328.79 328.79 0 0 1 34.13 8.85l11.89-47.32c-7.38 7.85-18 18.28-24.16 18.68-3.83 0-5.55-3.71-6.47-7.45-5.19 6.27-12.57 11.77-18.15 2.26-2.72-4.72-4.43-9.61-5.8-14.64a69.4 69.4 0 0 1-5.88 14.16c-1.82 3.21-5.41 7.08-9.57 4.97-3.73-1.94-6.44-4.91-8.99-8.06-2.06 3.98-5.01 8.8-8.9 8.89-6.89-.18-15.32-10.45-19.76-15.35 5.59 16.2 12.22 35.73 16.8 49.35C84.84 51.86 72.76 22.55 63.38 0c2.85 3.58 10.96 13.69 13.63 17.05 3.65 4.58 14.88 18.5 20.52 18.71 1.36-.68 2.55-2.7 3.47-4.1 1.62-2.62 3.13-5.94 4.41-8.75 3.42 4.38 6.91 9.71 11.69 12.44.54.18.53.29 1.01.12a4.8 4.8 0 0 0 1.46-1.24c2.8-3.53 4.34-7.93 5.93-12.32 2.15-6.06 4.04-14.3 5.59-20.59l2.01 9.69c.77 3.74 1.75 7.55 2.91 11.22 1.49 4.44 2.91 8.95 5.85 12.37 3.1 4.14 10.44-5.91 12.27-8.56l3.42-4.99.68 5.99c.36 2.68.85 5.8 2.19 8.08.19.29.4.49.48.56h.16c3.39-.74 6.55-3.72 9.31-5.93a151.8 151.8 0 0 0 9.06-8.57c4.78-4.78 10.13-10.97 14.64-16.04ZM5.98 106.4v13.3h17.61v5.68H5.98v17.93H0v-42.59h26.81v5.68H5.98zm55.52 31.23v5.68H34.13v-42.59h5.98v36.91H61.5zm24.31-36.91h-5.09l-15.71 42.59h6.45l3.21-9.34h17.19l3.21 9.34h6.45l-15.71-42.59Zm-9.19 27.56 6.64-19.33 6.64 19.33H76.62Zm24.31-27.56h6.5l10.22 33.4 10.22-33.4h6.5l-13.89 42.6h-5.68l-13.89-42.6Zm45.88 5.68v12.92h18.16V125h-18.16v12.63h21.39v5.68h-27.37v-42.59h27.37v5.68h-21.39zm51.12 18.27a11.16 11.16 0 0 0 6.48-5.22c1.03-1.86 1.55-4.02 1.55-6.46s-.51-4.59-1.54-6.46a10.72 10.72 0 0 0-4.33-4.32 13.33 13.33 0 0 0-6.49-1.52h-16.91v42.62h5.98V125.3h8.9l9.09 18.01h7.09l-9.82-18.64Zm-15.26-18.3h11.16c1.15 0 2.16.27 3.03.82s1.55 1.32 2.03 2.33c.47 1.01.71 2.16.71 3.47s-.24 2.47-.71 3.47a5.35 5.35 0 0 1-5.06 3.15h-11.16v-13.24Zm39.11 36.94h-5.98v-42.6h5.98v42.6Zm16.79-1.5c-2.27-1.3-4.02-3.13-5.26-5.51s-1.86-5.12-1.86-8.25v-12.07c0-3.12.62-5.87 1.86-8.25s2.99-4.21 5.26-5.51 4.88-1.95 7.85-1.95 5.59.65 7.85 1.95 4.02 3.13 5.26 5.51 1.86 5.12 1.86 8.25v12.07c0 3.12-.62 5.87-1.86 8.25s-2.99 4.21-5.26 5.51-4.88 1.95-7.85 1.95-5.59-.65-7.85-1.95Zm12.49-5.13c1.34-.79 2.37-1.91 3.11-3.37s1.1-3.14 1.1-5.05v-12.48c0-1.91-.37-3.6-1.1-5.05s-1.77-2.58-3.11-3.37-2.89-1.19-4.64-1.19-3.31.4-4.64 1.19-2.37 1.91-3.11 3.37-1.1 3.14-1.1 5.05v12.48c0 1.91.37 3.6 1.1 5.05s1.77 2.58 3.11 3.37 2.89 1.19 4.64 1.19 3.31-.4 4.64-1.19ZM26.59 161.61v1.14h-3.74v11.21h-1.23v-11.21h-3.75v-1.14h8.72zm10.45 0v12.35h-1.22v-5.51h-6.3v5.51h-1.23v-12.35h1.23v5.65h6.3v-5.65h1.22zm4.28 1.14v4.5h5.78v1.14h-5.78v4.43h6.72v1.14H40.1v-12.35h7.94v1.14h-6.72zm15.87 11.17a6.1 6.1 0 0 1-2.79-1.36l.74-.97a5.43 5.43 0 0 0 3.74 1.36c1.06 0 1.88-.21 2.46-.63s.87-1.01.87-1.77c0-.48-.13-.86-.38-1.14s-.58-.5-.98-.64-.91-.27-1.54-.39l-.05-.01-.06-.01-.25-.05c-.87-.16-1.56-.34-2.08-.51a3.03 3.03 0 0 1-1.33-.91 2.63 2.63 0 0 1-.55-1.78c0-.77.17-1.43.51-1.97.34-.54.84-.95 1.5-1.24s1.45-.42 2.37-.42a6.31 6.31 0 0 1 3.8 1.29l-.72.96c-.53-.37-1.05-.65-1.56-.84s-1.01-.28-1.51-.28c-1.01 0-1.79.21-2.34.64s-.83 1.02-.83 1.79c0 .47.14.84.42 1.11s.62.47 1.03.6a15.65 15.65 0 0 0 1.76.43l.08.02.1.02.1.02c.78.16 1.42.34 1.94.54s.94.52 1.29.96c.34.43.51 1.02.51 1.75v.02c0 .75-.18 1.4-.54 1.93-.36.53-.87.94-1.55 1.22a6.4 6.4 0 0 1-2.45.42c-.59 0-1.16-.06-1.69-.17Zm10.14-.4c-.65-.38-1.15-.92-1.51-1.61s-.54-1.5-.54-2.42v-3.39c0-.92.18-1.72.54-2.42s.86-1.24 1.51-1.62c.65-.38 1.4-.57 2.26-.57a4.12 4.12 0 0 1 3.44 1.66c.4.53.67 1.14.81 1.84h-1.22a3.28 3.28 0 0 0-3.03-2.36c-.61 0-1.15.14-1.61.43s-.82.7-1.08 1.22-.38 1.13-.38 1.82v3.39c0 .69.13 1.3.38 1.82s.61.93 1.08 1.21c.46.29 1 .43 1.61.43a3.17 3.17 0 0 0 3.03-2.37h1.22a4.34 4.34 0 0 1-2.32 3.07c-.6.29-1.24.43-1.95.43-.86 0-1.61-.19-2.26-.57Zm10.04-10.77v4.5h5.77v1.14h-5.77v4.43h6.71v1.14h-7.94v-12.35h7.94v1.14h-6.71zm18.3-1.14v12.34h-1.26l-6.65-10.21v10.21h-1.22v-12.34h1.23l6.67 10.34v-10.34h1.23zm4.84 11.91c-.65-.38-1.15-.92-1.51-1.61s-.54-1.5-.54-2.42v-3.39c0-.92.18-1.72.54-2.42s.86-1.24 1.51-1.62c.65-.38 1.4-.57 2.26-.57a4.12 4.12 0 0 1 3.44 1.66c.4.53.67 1.14.81 1.84h-1.22a3.28 3.28 0 0 0-3.03-2.36c-.61 0-1.15.14-1.61.43s-.82.7-1.08 1.22-.38 1.13-.38 1.82v3.39c0 .69.13 1.3.38 1.82s.61.93 1.08 1.21c.46.29 1 .43 1.61.43a3.17 3.17 0 0 0 3.03-2.37h1.22a4.34 4.34 0 0 1-2.32 3.07c-.6.29-1.24.43-1.95.43-.86 0-1.61-.19-2.26-.57Zm10.03-10.77v4.5h5.77v1.14h-5.77v4.43h6.71v1.14h-7.93v-12.35h7.93v1.14h-6.71zm15.59 10.8c-.65-.36-1.14-.88-1.48-1.55s-.51-1.5-.51-2.46v-3.5c0-.96.17-1.78.51-2.46s.83-1.2 1.48-1.55 1.43-.54 2.35-.54 1.7.18 2.35.54c.65.36 1.14.88 1.48 1.55s.51 1.5.51 2.46v3.5c0 .96-.17 1.78-.51 2.46s-.83 1.2-1.48 1.55c-.65.36-1.43.54-2.35.54s-1.7-.18-2.35-.54Zm4.03-1a2.6 2.6 0 0 0 1.07-1.15c.24-.5.37-1.11.37-1.81v-3.62a4 4 0 0 0-.37-1.81 2.6 2.6 0 0 0-1.07-1.15c-.47-.26-1.03-.4-1.69-.4s-1.22.13-1.69.4a2.6 2.6 0 0 0-1.07 1.15c-.24.5-.37 1.11-.37 1.81v3.62a4 4 0 0 0 .37 1.81c.24.5.6.88 1.07 1.15.47.26 1.03.4 1.69.4s1.22-.13 1.69-.4Zm6.51-9.8v4.62h5.62v1.14h-5.62v5.45h-1.22v-12.35h7.78v1.14h-6.56zm21.63 4.9v1.82c0 1.03-.16 1.89-.48 2.57-.32.69-.8 1.2-1.44 1.54s-1.44.51-2.4.51-1.79-.16-2.43-.48-1.13-.81-1.46-1.45-.48-1.45-.48-2.42v-3.64c0-1.03.16-1.89.48-2.57s.8-1.19 1.44-1.53 1.44-.51 2.4-.51c.8 0 1.49.14 2.06.41s1.05.68 1.42 1.22c.37.54.63 1.22.79 2.04h-1.33a4.17 4.17 0 0 0-.62-1.41c-.26-.37-.59-.65-.98-.84s-.84-.28-1.35-.28c-.69 0-1.27.13-1.72.39-.46.26-.8.64-1.03 1.16a4.73 4.73 0 0 0-.34 1.93v3.64c0 .72.12 1.32.35 1.79s.58.83 1.05 1.07c.47.24 1.05.36 1.75.36s1.25-.12 1.69-.37.78-.62 1-1.13.34-1.16.34-1.96v-.71h-2.99v-1.14h4.28Zm8.78.9a3.12 3.12 0 0 0 1.89-1.51c.3-.54.44-1.16.44-1.88s-.14-1.33-.44-1.88a3.1 3.1 0 0 0-1.26-1.25 3.81 3.81 0 0 0-1.88-.44h-4.91v12.36h1.23v-5.23h3.68l2.64 5.23h1.46l-2.85-5.41Zm-4.93-5.81h3.75c.46 0 .87.1 1.22.3.35.2.62.48.8.85.19.38.29.79.29 1.28 0 .48-.11.91-.3 1.28-.18.37-.45.66-.8.85-.35.2-.75.31-1.21.31h-3.75v-4.86Zm11.34.01v4.5h5.78v1.14h-5.78v4.43h6.72v1.14h-7.93v-12.35h7.93v1.14h-6.72zm14.03-1.14h-1.48l-4.55 12.35h1.35l1.06-3h5.74l1.06 3h1.36l-4.55-12.35Zm-3.21 8.21 2.47-6.93 2.47 6.93h-4.93Zm16.31-8.21v1.14h-3.75v11.21h-1.22v-11.21h-3.75v-1.14h8.72zm10.83 0v12.34h-1.26l-6.65-10.21v10.21h-1.22v-12.34h1.23l6.67 10.34v-10.34h1.23zm4.28 1.14v4.5h5.77v1.14h-5.77v4.43h6.71v1.14h-7.94v-12.35h7.94v1.14h-6.71zm11.19 11.17a6.1 6.1 0 0 1-2.79-1.36l.74-.97a5.43 5.43 0 0 0 3.74 1.36c1.06 0 1.88-.21 2.46-.63s.87-1.01.87-1.77c0-.48-.13-.86-.38-1.14s-.58-.5-.98-.64-.91-.27-1.54-.39l-.05-.01-.06-.01-.25-.05c-.87-.16-1.56-.34-2.08-.51a3.03 3.03 0 0 1-1.33-.91 2.63 2.63 0 0 1-.55-1.78c0-.77.17-1.43.51-1.97.34-.54.84-.95 1.5-1.24s1.45-.42 2.37-.42a6.31 6.31 0 0 1 3.8 1.29l-.72.96c-.53-.37-1.05-.65-1.56-.84s-1.01-.28-1.51-.28c-1.01 0-1.79.21-2.34.64s-.83 1.02-.83 1.79c0 .47.14.84.42 1.11s.62.47 1.03.6a15.65 15.65 0 0 0 1.76.43l.08.02.1.02.1.02c.78.16 1.42.34 1.94.54s.94.52 1.29.96c.34.43.51 1.02.51 1.75v.02c0 .75-.18 1.4-.54 1.93-.36.53-.87.94-1.55 1.22a6.4 6.4 0 0 1-2.45.42c-.59 0-1.16-.06-1.69-.17Zm10.37 0a6.1 6.1 0 0 1-2.79-1.36l.74-.97a5.43 5.43 0 0 0 3.74 1.36c1.06 0 1.88-.21 2.46-.63s.87-1.01.87-1.77c0-.48-.13-.86-.38-1.14s-.58-.5-.98-.64-.91-.27-1.54-.39l-.05-.01-.06-.01-.25-.05c-.87-.16-1.56-.34-2.08-.51a3.03 3.03 0 0 1-1.33-.91 2.63 2.63 0 0 1-.55-1.78c0-.77.17-1.43.51-1.97.34-.54.84-.95 1.5-1.24s1.45-.42 2.37-.42a6.31 6.31 0 0 1 3.8 1.29l-.72.96c-.53-.37-1.05-.65-1.56-.84s-1.01-.28-1.51-.28c-1.01 0-1.79.21-2.34.64s-.83 1.02-.83 1.79c0 .47.14.84.42 1.11s.62.47 1.03.6a15.65 15.65 0 0 0 1.76.43l.08.02.1.02.1.02c.78.16 1.42.34 1.94.54s.94.52 1.29.96c.34.43.51 1.02.51 1.75v.02c0 .75-.18 1.4-.54 1.93-.36.53-.87.94-1.55 1.22a6.4 6.4 0 0 1-2.45.42c-.59 0-1.16-.06-1.69-.17Z" class="cls-1"/>
</svg>